<svg width="48" height="48" viewBox="0 0 48 48" fill="none" xmlns="http://www.w3.org/2000/svg">
<g clip-path="url(#clip0_88_2)">
<path d="M24 13.125H45.375C47.2766 16.8673 48.1634 21.0429 47.9469 25.235C47.7305 29.4272 46.4182 33.4892 44.1412 37.0157C41.8642 40.5422 38.7021 43.4098 34.9705 45.3323C31.2389 47.2548 27.0683 48.165 22.875 47.9719" fill="#A2C2FA"/>
<path d="M33.4681 29.4375L22.8743 47.9719C18.6657 47.7803 14.5816 46.4842 11.0326 44.2138C7.48368 41.9435 4.59487 38.779 2.6566 35.0383C0.718333 31.2976 -0.201103 27.1127 -0.00928763 22.904C0.182528 18.6954 1.47884 14.6114 3.74934 11.0625" fill="#6199F6"/>
<path d="M24 13.125H45.375C43.4602 9.35199 40.5821 6.15222 37.0322 3.85001C33.4823 1.54779 29.3869 0.224948 25.161 0.0155575C20.9351 -0.193833 16.729 0.717668 12.9689 2.65768C9.20877 4.59769 6.02837 7.49726 3.75 11.0625L14.5312 29.4375" fill="#396BD7"/>
<path d="M24 33.8438C29.4366 33.8438 33.8438 29.4366 33.8438 24C33.8438 18.5634 29.4366 14.1562 24 14.1562C18.5634 14.1562 14.1562 18.5634 14.1562 24C14.1562 29.4366 18.5634 33.8438 24 33.8438Z" fill="#4687F4" stroke="#F1F1F1" stroke-width="1.875"/>
</g>
<defs>
<clipPath id="clip0_88_2">
<rect width="48" height="48" fill="white"/>
</clipPath>
</defs>
</svg>
