<svg width="48" height="48" viewBox="0 0 48 48" fill="none" xmlns="http://www.w3.org/2000/svg">
<g clip-path="url(#clip0_88_14)">
<path d="M45.7936 16.1169C44.7826 13.6844 42.732 11.058 41.1261 10.2277C42.2712 12.4453 43.0661 14.8267 43.4823 17.2875L43.4866 17.3265C40.8559 10.771 36.3968 8.12362 32.7528 2.36654C32.5685 2.07538 32.3842 1.78362 32.2047 1.47566C32.1021 1.29976 32.0198 1.14128 31.9484 0.995401C31.7973 0.702777 31.6808 0.393522 31.6014 0.0739077C31.6015 0.0591591 31.5962 0.0448875 31.5864 0.0338152C31.5767 0.022743 31.5632 0.0156451 31.5486 0.0138756C31.5342 0.00994186 31.5191 0.00994186 31.5047 0.0138756C31.5017 0.0138756 31.4969 0.0192785 31.4933 0.0204791C31.4897 0.0216798 31.4819 0.0270826 31.4765 0.0294839L31.4855 0.0138756C25.6414 3.43571 23.6573 9.7691 23.4772 12.9388C21.1426 13.0989 18.9103 13.9589 17.0718 15.4067C16.8801 15.2443 16.6797 15.0924 16.4715 14.9517C15.9414 13.096 15.9188 11.1322 16.406 9.26483C14.2598 10.3045 12.3528 11.7783 10.8057 13.5931H10.7948C9.87275 12.4243 9.93759 8.57026 9.99041 7.76523C9.71763 7.87486 9.45723 8.0131 9.2136 8.17765C8.39958 8.7586 7.6386 9.4105 6.93958 10.1257C6.14301 10.9333 5.41547 11.8062 4.76462 12.7353C3.26893 14.8554 2.20796 17.2501 1.64294 19.7825L1.61173 19.9361C1.5679 20.1409 1.41002 21.1662 1.38301 21.3889C1.38301 21.4063 1.3794 21.4225 1.3776 21.4399C1.17394 22.4985 1.04774 23.5705 1 24.6475V24.7675C1.01028 30.5898 3.20293 36.1966 7.14511 40.4812C11.0873 44.7658 16.4925 47.4169 22.2937 47.911C28.095 48.4051 33.8707 46.7063 38.4807 43.1501C43.0907 39.5939 46.2 34.4387 47.1947 28.702C47.2338 28.4019 47.2656 28.1047 47.3004 27.8016C47.7796 23.8406 47.2608 19.8226 45.7912 16.1133L45.7936 16.1169ZM18.9772 34.3306C19.0859 34.3829 19.1879 34.4393 19.2996 34.4891L19.3158 34.4993C19.2029 34.4453 19.0901 34.3891 18.9772 34.3306ZM43.4872 17.3332V17.3109L43.4914 17.3356L43.4872 17.3332Z" fill="url(#paint0_linear_88_14)"/>
<path d="M45.7937 16.1175C44.7827 13.685 42.732 11.0586 41.1262 10.2284C42.2713 12.4459 43.0661 14.8274 43.4824 17.2882V17.3104L43.4866 17.335C45.2803 22.4672 45.0209 28.094 42.7626 33.0394C40.096 38.7611 33.6438 44.6256 23.5403 44.3375C12.6265 44.0283 3.00936 35.927 1.2144 25.3193C0.887224 23.6462 1.2144 22.7979 1.37888 21.4382C1.15451 22.4944 1.0293 23.5692 1.00488 24.6487V24.7688C1.01517 30.591 3.20782 36.1979 7.14999 40.4825C11.0922 44.7671 16.4974 47.4181 22.2986 47.9122C28.0999 48.4063 33.8756 46.7076 38.4856 43.1514C43.0956 39.5952 46.2048 34.4399 47.1996 28.7033C47.2386 28.4031 47.2705 28.106 47.3053 27.8028C47.7845 23.8418 47.2657 19.8239 45.7961 16.1145L45.7937 16.1175Z" fill="url(#paint1_radial_88_14)"/>
<path d="M45.7937 16.1175C44.7827 13.685 42.732 11.0586 41.1262 10.2284C42.2713 12.4459 43.0661 14.8274 43.4824 17.2882V17.3104L43.4866 17.335C45.2803 22.4672 45.0209 28.094 42.7626 33.0394C40.096 38.7611 33.6438 44.6256 23.5403 44.3375C12.6265 44.0283 3.00936 35.927 1.2144 25.3193C0.887224 23.6462 1.2144 22.7979 1.37888 21.4382C1.15451 22.4944 1.0293 23.5692 1.00488 24.6487V24.7688C1.01517 30.591 3.20782 36.1979 7.14999 40.4825C11.0922 44.7671 16.4974 47.4181 22.2986 47.9122C28.0999 48.4063 33.8756 46.7076 38.4856 43.1514C43.0956 39.5952 46.2048 34.4399 47.1996 28.7033C47.2386 28.4031 47.2705 28.106 47.3053 27.8028C47.7845 23.8418 47.2657 19.8239 45.7961 16.1145L45.7937 16.1175Z" fill="url(#paint2_radial_88_14)"/>
<path d="M34.4838 18.849C34.5342 18.8844 34.581 18.9198 34.6284 18.9553C34.044 17.9189 33.3165 16.9701 32.4673 16.1368C25.2334 8.90289 30.5721 0.456364 31.472 0.0241324L31.481 0.0109253C25.6368 3.43276 23.6528 9.76615 23.4727 12.9358C23.744 12.9172 24.013 12.8944 24.2903 12.8944C26.3637 12.8984 28.3991 13.4514 30.1895 14.4971C31.98 15.5427 33.4616 17.0439 34.4838 18.8478V18.849Z" fill="url(#paint3_radial_88_14)"/>
<path d="M24.3027 20.2956C24.2643 20.8743 22.2196 22.8704 21.5046 22.8704C14.8891 22.8704 13.8145 26.8728 13.8145 26.8728C14.1075 30.243 16.4559 33.02 19.2948 34.4848C19.4245 34.5521 19.556 34.6127 19.6874 34.6721C19.9152 34.773 20.1429 34.8662 20.3706 34.9519C21.3449 35.2967 22.3654 35.4935 23.398 35.536C34.9962 36.0799 37.2414 21.6686 28.8724 17.4843C30.8465 17.2275 32.8458 17.7129 34.4824 18.8465C33.4602 17.0425 31.9786 15.5414 30.1881 14.4957C28.3977 13.45 26.3623 12.8971 24.2889 12.8931C24.0128 12.8931 23.7426 12.9159 23.4713 12.9345C21.1366 13.0946 18.9044 13.9546 17.0658 15.4024C17.4206 15.7026 17.821 16.1036 18.6645 16.935C20.2433 18.4905 24.2925 20.1017 24.3015 20.2908L24.3027 20.2956Z" fill="url(#paint4_radial_88_14)"/>
<path d="M24.3027 20.2956C24.2643 20.8743 22.2196 22.8704 21.5046 22.8704C14.8891 22.8704 13.8145 26.8728 13.8145 26.8728C14.1075 30.243 16.4559 33.02 19.2948 34.4848C19.4245 34.5521 19.556 34.6127 19.6874 34.6721C19.9152 34.773 20.1429 34.8662 20.3706 34.9519C21.3449 35.2967 22.3654 35.4935 23.398 35.536C34.9962 36.0799 37.2414 21.6686 28.8724 17.4843C30.8465 17.2275 32.8458 17.7129 34.4824 18.8465C33.4602 17.0425 31.9786 15.5414 30.1881 14.4957C28.3977 13.45 26.3623 12.8971 24.2889 12.8931C24.0128 12.8931 23.7426 12.9159 23.4713 12.9345C21.1366 13.0946 18.9044 13.9546 17.0658 15.4024C17.4206 15.7026 17.821 16.1036 18.6645 16.935C20.2433 18.4905 24.2925 20.1017 24.3015 20.2908L24.3027 20.2956Z" fill="url(#paint5_radial_88_14)"/>
<path d="M15.9814 14.6346C16.1699 14.7547 16.3254 14.8591 16.4617 14.9534C15.9316 13.0977 15.909 11.1339 16.3963 9.26654C14.25 10.3062 12.343 11.78 10.7959 13.5949C10.9093 13.5919 14.2843 13.5312 15.9814 14.6346Z" fill="url(#paint6_radial_88_14)"/>
<path d="M1.20984 25.3205C3.00541 35.9282 12.622 44.0325 23.5358 44.3387C33.6392 44.6244 40.0927 38.7593 42.7581 33.0406C45.0164 28.0952 45.2758 22.4684 43.4821 17.3362V17.314C43.4821 17.2966 43.4785 17.2864 43.4821 17.2918L43.4863 17.3308C44.3118 22.7199 41.5707 27.9385 37.285 31.4744L37.2718 31.5044C28.9213 38.3061 20.931 35.607 19.3162 34.506C19.2033 34.452 19.0904 34.3958 18.9776 34.3373C14.1096 32.0105 12.0979 27.5777 12.5301 23.7717C11.3746 23.7887 10.2389 23.4703 9.2606 22.855C8.28236 22.2396 7.50355 21.3538 7.01855 20.3048C8.29652 19.522 9.75366 19.0794 11.2512 19.0193C12.7486 18.9592 14.2366 19.2835 15.5732 19.9614C18.3282 21.212 21.4631 21.3352 24.3078 20.3048C24.2988 20.1157 20.2497 18.5038 18.6708 16.949C17.8274 16.1176 17.427 15.7172 17.0722 15.4164C16.8804 15.254 16.68 15.1021 16.4718 14.9614C16.3338 14.8671 16.1783 14.765 15.9916 14.6426C14.2945 13.5392 10.9195 13.5998 10.8078 13.6028H10.797C9.87488 12.434 9.93972 8.57993 9.99255 7.7749C9.71976 7.88453 9.45936 8.02278 9.21573 8.18732C8.40171 8.76828 7.64074 9.42017 6.94171 10.1354C6.14229 10.9407 5.41174 11.8116 4.75774 12.739C3.26206 14.8591 2.20109 17.2538 1.63607 19.7861C1.62467 19.8336 0.798026 23.4475 1.20564 25.3217L1.20984 25.3205Z" fill="url(#paint7_radial_88_14)"/>
<path d="M32.4667 16.1354C33.3161 16.9697 34.0437 17.9195 34.6279 18.9569C34.7558 19.0536 34.8752 19.1496 34.9767 19.2427C40.2517 24.1053 37.4878 30.9789 37.2819 31.4652C41.567 27.9347 44.3057 22.7125 43.4832 17.3216C40.8514 10.7601 36.3874 8.11269 32.7495 2.35561C32.5652 2.06445 32.3809 1.7727 32.2014 1.46473C32.0987 1.28884 32.0165 1.13035 31.945 0.984476C31.7939 0.691852 31.6775 0.382596 31.5981 0.0629824C31.5982 0.0482338 31.5928 0.0339622 31.5831 0.0228899C31.5734 0.0118177 31.5599 0.00471977 31.5452 0.00295028C31.5309 -0.000983427 31.5158 -0.000983427 31.5014 0.00295028C31.4984 0.00295028 31.4936 0.00835317 31.49 0.00955382C31.4864 0.0107545 31.4786 0.0161574 31.4732 0.0185586C30.5733 0.445387 25.2359 8.89731 32.4697 16.1252L32.4667 16.1354Z" fill="url(#paint8_radial_88_14)"/>
<path d="M34.9759 19.2453C34.8744 19.1523 34.7549 19.0562 34.6271 18.9596C34.5796 18.9241 34.5328 18.8887 34.4824 18.8533C32.8458 17.7197 30.8466 17.2343 28.8724 17.4912C37.2409 21.6754 34.9957 36.0831 23.3981 35.5428C22.3654 35.5004 21.345 35.3035 20.3706 34.9587C20.1429 34.8735 19.9152 34.7802 19.6875 34.679C19.556 34.6189 19.4245 34.5589 19.2949 34.4917L19.3111 34.5019C20.9283 35.6059 28.9162 38.3031 37.2667 31.5003L37.2799 31.4703C37.4882 30.984 40.2521 24.1103 34.9747 19.2477L34.9759 19.2453Z" fill="url(#paint9_radial_88_14)"/>
<path d="M13.8147 26.8692C13.8147 26.8692 14.8887 22.8669 21.5048 22.8669C22.2198 22.8669 24.2663 20.8708 24.3029 20.2921C21.4582 21.3225 18.3233 21.1993 15.5683 19.9487C14.2317 19.2708 12.7437 18.9465 11.2463 19.0066C9.74877 19.0667 8.29163 19.5092 7.01367 20.2921C7.49867 21.3411 8.27747 22.2269 9.25572 22.8422C10.234 23.4576 11.3697 23.776 12.5252 23.759C12.0942 27.5632 14.1053 31.9954 18.9727 34.3246C19.0814 34.3768 19.1834 34.4333 19.2951 34.4831C16.4537 33.0153 14.1077 30.2394 13.8147 26.871V26.8692Z" fill="url(#paint10_radial_88_14)"/>
<path d="M45.7933 16.1169C44.7824 13.6844 42.7317 11.058 41.1258 10.2277C42.2709 12.4453 43.0658 14.8267 43.4821 17.2875L43.4863 17.3265C40.8557 10.771 36.3965 8.12362 32.7525 2.36654C32.5682 2.07538 32.3839 1.78362 32.2044 1.47566C32.1018 1.29976 32.0195 1.14128 31.9481 0.995401C31.797 0.702777 31.6805 0.393522 31.6011 0.0739077C31.6012 0.0591591 31.5959 0.0448875 31.5862 0.0338152C31.5764 0.022743 31.5629 0.0156451 31.5483 0.0138756C31.5339 0.00994186 31.5188 0.00994186 31.5045 0.0138756C31.5015 0.0138756 31.4967 0.0192785 31.4931 0.0204791C31.4895 0.0216798 31.4817 0.0270826 31.4763 0.0294839L31.4853 0.0138756C25.6411 3.43571 23.6571 9.7691 23.477 12.9388C23.7483 12.9202 24.0173 12.8974 24.2946 12.8974C26.368 12.9014 28.4034 13.4543 30.1938 14.5C31.9843 15.5457 33.4659 17.0468 34.4881 18.8508C32.8515 17.7172 30.8522 17.2318 28.8781 17.4886C37.2465 21.6729 35.0013 36.0806 23.4037 35.5403C22.3711 35.4978 21.3506 35.301 20.3763 34.9562C20.1486 34.8709 19.9209 34.7777 19.6931 34.6764C19.5617 34.6164 19.4302 34.5564 19.3005 34.4891L19.3167 34.4993C19.2039 34.4453 19.091 34.3891 18.9782 34.3306C19.0868 34.3829 19.1889 34.4393 19.3005 34.4891C16.4592 33.0207 14.1132 30.2449 13.8202 26.8771C13.8202 26.8771 14.8942 22.8747 21.5103 22.8747C22.2253 22.8747 24.2718 20.8786 24.3084 20.2999C24.2994 20.1108 20.2502 18.499 18.6714 16.9441C17.8279 16.1127 17.4275 15.7123 17.0727 15.4115C16.881 15.2491 16.6806 15.0972 16.4724 14.9565C15.9423 13.1008 15.9197 11.137 16.407 9.26963C14.2607 10.3093 12.3537 11.7831 10.8066 13.598H10.7958C9.87373 12.4291 9.93857 8.57506 9.9914 7.77003C9.71861 7.87966 9.45821 8.01791 9.21458 8.18245C8.40056 8.7634 7.63958 9.4153 6.94056 10.1305C6.14399 10.9381 5.41645 11.811 4.7656 12.7401C3.26991 14.8602 2.20894 17.2549 1.64392 19.7873L1.61271 19.9409C1.56888 20.1457 1.37258 21.1854 1.34436 21.4087C1.16481 22.482 1.05014 23.5652 1.00098 24.6523V24.7723C1.01126 30.5946 3.20391 36.2014 7.14609 40.486C11.0882 44.7706 16.4934 47.4217 22.2947 47.9158C28.0959 48.4099 33.8716 46.7111 38.4816 43.1549C43.0916 39.5987 46.2009 34.4435 47.1957 28.7068C47.2347 28.4067 47.2665 28.1095 47.3013 27.8064C47.7806 23.8454 47.2618 19.8274 45.7921 16.1181L45.7933 16.1169Z" fill="url(#paint11_linear_88_14)"/>
</g>
<defs>
<linearGradient id="paint0_linear_88_14" x1="42.714" y1="7.446" x2="4.087" y2="44.714" gradientUnits="userSpaceOnUse">
<stop offset="0.048" stop-color="#FFF44F"/>
<stop offset="0.111" stop-color="#FFE847"/>
<stop offset="0.225" stop-color="#FFC830"/>
<stop offset="0.368" stop-color="#FF980E"/>
<stop offset="0.401" stop-color="#FF8B16"/>
<stop offset="0.462" stop-color="#FF672A"/>
<stop offset="0.534" stop-color="#FF3647"/>
<stop offset="0.705" stop-color="#E31587"/>
</linearGradient>
<radialGradient id="paint1_radial_88_14" cx="0" cy="0" r="1" gradientUnits="userSpaceOnUse" gradientTransform="translate(41.2199 5.414) scale(48.506 48.506)">
<stop offset="0.129" stop-color="#FFBD4F"/>
<stop offset="0.186" stop-color="#FFAC31"/>
<stop offset="0.247" stop-color="#FF9D17"/>
<stop offset="0.283" stop-color="#FF980E"/>
<stop offset="0.403" stop-color="#FF563B"/>
<stop offset="0.467" stop-color="#FF3750"/>
<stop offset="0.71" stop-color="#F5156C"/>
<stop offset="0.782" stop-color="#EB0878"/>
<stop offset="0.86" stop-color="#E50080"/>
</radialGradient>
<radialGradient id="paint2_radial_88_14" cx="0" cy="0" r="1" gradientUnits="userSpaceOnUse" gradientTransform="translate(23.2099 25.224) scale(48.506 48.506)">
<stop offset="0.3" stop-color="#960E18"/>
<stop offset="0.351" stop-color="#B11927" stop-opacity="0.74"/>
<stop offset="0.435" stop-color="#DB293D" stop-opacity="0.343"/>
<stop offset="0.497" stop-color="#F5334B" stop-opacity="0.094"/>
<stop offset="0.53" stop-color="#FF3750" stop-opacity="0"/>
</radialGradient>
<radialGradient id="paint3_radial_88_14" cx="0" cy="0" r="1" gradientUnits="userSpaceOnUse" gradientTransform="translate(29.2132 -5.392) scale(35.1368 35.1368)">
<stop offset="0.132" stop-color="#FFF44F"/>
<stop offset="0.252" stop-color="#FFDC3E"/>
<stop offset="0.506" stop-color="#FF9D12"/>
<stop offset="0.526" stop-color="#FF980E"/>
</radialGradient>
<radialGradient id="paint4_radial_88_14" cx="0" cy="0" r="1" gradientUnits="userSpaceOnUse" gradientTransform="translate(17.8075 37.831) scale(23.0944)">
<stop offset="0.353" stop-color="#3A8EE6"/>
<stop offset="0.472" stop-color="#5C79F0"/>
<stop offset="0.669" stop-color="#9059FF"/>
<stop offset="1" stop-color="#C139E6"/>
</radialGradient>
<radialGradient id="paint5_radial_88_14" cx="0" cy="0" r="1" gradientUnits="userSpaceOnUse" gradientTransform="translate(25.5575 21.061) rotate(-13.592) scale(12.2466 14.3377)">
<stop offset="0.206" stop-color="#9059FF" stop-opacity="0"/>
<stop offset="0.278" stop-color="#8C4FF3" stop-opacity="0.064"/>
<stop offset="0.747" stop-color="#7716A8" stop-opacity="0.45"/>
<stop offset="0.975" stop-color="#6E008B" stop-opacity="0.6"/>
</radialGradient>
<radialGradient id="paint6_radial_88_14" cx="0" cy="0" r="1" gradientUnits="userSpaceOnUse" gradientTransform="translate(22.6099 3.613) scale(16.6169)">
<stop stop-color="#FFE226"/>
<stop offset="0.121" stop-color="#FFDB27"/>
<stop offset="0.295" stop-color="#FFC82A"/>
<stop offset="0.502" stop-color="#FFA930"/>
<stop offset="0.732" stop-color="#FF7E37"/>
<stop offset="0.792" stop-color="#FF7139"/>
</radialGradient>
<radialGradient id="paint7_radial_88_14" cx="0" cy="0" r="1" gradientUnits="userSpaceOnUse" gradientTransform="translate(35.8156 -7.193) scale(70.898 70.898)">
<stop offset="0.113" stop-color="#FFF44F"/>
<stop offset="0.456" stop-color="#FF980E"/>
<stop offset="0.622" stop-color="#FF5634"/>
<stop offset="0.716" stop-color="#FF3647"/>
<stop offset="0.904" stop-color="#E31587"/>
</radialGradient>
<radialGradient id="paint8_radial_88_14" cx="0" cy="0" r="1" gradientUnits="userSpaceOnUse" gradientTransform="translate(29.9242 -3.262) rotate(83.976) scale(51.9551 34.0976)">
<stop stop-color="#FFF44F"/>
<stop offset="0.06" stop-color="#FFE847"/>
<stop offset="0.168" stop-color="#FFC830"/>
<stop offset="0.304" stop-color="#FF980E"/>
<stop offset="0.356" stop-color="#FF8B16"/>
<stop offset="0.455" stop-color="#FF672A"/>
<stop offset="0.57" stop-color="#FF3647"/>
<stop offset="0.737" stop-color="#E31587"/>
</radialGradient>
<radialGradient id="paint9_radial_88_14" cx="0" cy="0" r="1" gradientUnits="userSpaceOnUse" gradientTransform="translate(22.61 9.61599) scale(44.2557 44.2557)">
<stop offset="0.137" stop-color="#FFF44F"/>
<stop offset="0.48" stop-color="#FF980E"/>
<stop offset="0.592" stop-color="#FF5634"/>
<stop offset="0.655" stop-color="#FF3647"/>
<stop offset="0.904" stop-color="#E31587"/>
</radialGradient>
<radialGradient id="paint10_radial_88_14" cx="0" cy="0" r="1" gradientUnits="userSpaceOnUse" gradientTransform="translate(34.0152 12.017) scale(48.4399 48.4399)">
<stop offset="0.094" stop-color="#FFF44F"/>
<stop offset="0.231" stop-color="#FFE141"/>
<stop offset="0.509" stop-color="#FFAF1E"/>
<stop offset="0.626" stop-color="#FF980E"/>
</radialGradient>
<linearGradient id="paint11_linear_88_14" x1="42.2458" y1="7.248" x2="9.38384" y2="40.115" gradientUnits="userSpaceOnUse">
<stop offset="0.167" stop-color="#FFF44F" stop-opacity="0.8"/>
<stop offset="0.266" stop-color="#FFF44F" stop-opacity="0.634"/>
<stop offset="0.489" stop-color="#FFF44F" stop-opacity="0.217"/>
<stop offset="0.6" stop-color="#FFF44F" stop-opacity="0"/>
</linearGradient>
<clipPath id="clip0_88_14">
<rect width="48" height="48" fill="white"/>
</clipPath>
</defs>
</svg>
